<svg id="visual" viewBox="0 0 960 540" width="960" height="540" xmlns="http://www.w3.org/2000/svg" xmlns:xlink="http://www.w3.org/1999/xlink" version="1.1"><rect x="0" y="0" width="960" height="540" fill="#F7CACA"></rect><path d="M0 318L22.8 316.8C45.7 315.7 91.3 313.3 137 301.5C182.7 289.7 228.3 268.3 274 267.3C319.7 266.3 365.3 285.7 411.2 295.8C457 306 503 307 548.8 309C594.7 311 640.3 314 686 310.2C731.7 306.3 777.3 295.7 823 284.3C868.7 273 914.3 261 937.2 255L960 249L960 0L937.2 0C914.3 0 868.7 0 823 0C777.3 0 731.7 0 686 0C640.3 0 594.7 0 548.8 0C503 0 457 0 411.2 0C365.3 0 319.7 0 274 0C228.3 0 182.7 0 137 0C91.3 0 45.7 0 22.8 0L0 0Z" fill="#f44336" stroke-linecap="round" stroke-linejoin="miter"></path></svg>