<svg id="visual" viewBox="0 0 960 540" width="960" height="540" xmlns="http://www.w3.org/2000/svg" xmlns:xlink="http://www.w3.org/1999/xlink" version="1.1"><rect x="0" y="0" width="960" height="540" fill="#F7CACA"></rect><path d="M0 281L22.8 282.3C45.7 283.7 91.3 286.3 137 287C182.7 287.7 228.3 286.3 274 288.7C319.7 291 365.3 297 411.2 300.8C457 304.7 503 306.3 548.8 299.2C594.7 292 640.3 276 686 268.5C731.7 261 777.3 262 823 269.7C868.7 277.3 914.3 291.7 937.2 298.8L960 306L960 0L937.2 0C914.3 0 868.7 0 823 0C777.3 0 731.7 0 686 0C640.3 0 594.7 0 548.8 0C503 0 457 0 411.2 0C365.3 0 319.7 0 274 0C228.3 0 182.7 0 137 0C91.3 0 45.7 0 22.8 0L0 0Z" fill="#f44336" stroke-linecap="round" stroke-linejoin="miter"></path></svg>