<svg id="visual" viewBox="0 0 960 540" width="960" height="540" xmlns="http://www.w3.org/2000/svg" xmlns:xlink="http://www.w3.org/1999/xlink" version="1.1"><rect x="0" y="0" width="960" height="540" fill="#F7CACA"></rect><path d="M0 250L22.8 255.3C45.7 260.7 91.3 271.3 137 277C182.7 282.7 228.3 283.3 274 286C319.7 288.7 365.3 293.3 411.2 287.3C457 281.3 503 264.7 548.8 267.2C594.7 269.7 640.3 291.3 686 285.8C731.7 280.3 777.3 247.7 823 242.2C868.7 236.7 914.3 258.3 937.2 269.2L960 280L960 0L937.2 0C914.3 0 868.7 0 823 0C777.3 0 731.7 0 686 0C640.3 0 594.7 0 548.8 0C503 0 457 0 411.2 0C365.3 0 319.7 0 274 0C228.3 0 182.7 0 137 0C91.3 0 45.7 0 22.8 0L0 0Z" fill="#f44336" stroke-linecap="round" stroke-linejoin="miter"></path></svg>