<svg id="visual" viewBox="0 0 960 540" width="960" height="540" xmlns="http://www.w3.org/2000/svg" xmlns:xlink="http://www.w3.org/1999/xlink" version="1.1"><rect x="0" y="0" width="960" height="540" fill="#F7CACA"></rect><path d="M0 287L22.8 275.8C45.7 264.7 91.3 242.3 137 244.8C182.7 247.3 228.3 274.7 274 283.7C319.7 292.7 365.3 283.3 411.2 274.3C457 265.3 503 256.7 548.8 259.2C594.7 261.7 640.3 275.3 686 273.8C731.7 272.3 777.3 255.7 823 253.2C868.7 250.7 914.3 262.3 937.2 268.2L960 274L960 0L937.2 0C914.3 0 868.7 0 823 0C777.3 0 731.7 0 686 0C640.3 0 594.7 0 548.8 0C503 0 457 0 411.2 0C365.3 0 319.7 0 274 0C228.3 0 182.7 0 137 0C91.3 0 45.7 0 22.8 0L0 0Z" fill="#f44336" stroke-linecap="round" stroke-linejoin="miter"></path></svg>